<?xml version="1.0" encoding="UTF-8"?>
<svg width="167px" height="44px" viewBox="0 0 167 44" version="1.1" xmlns="http://www.w3.org/2000/svg" xmlns:xlink="http://www.w3.org/1999/xlink">
    <title>badges/castbox-badge</title>
    <defs>
        <linearGradient x1="-8.46197371%" y1="0.125881741%" x2="108.335737%" y2="99.7577903%" id="linearGradient-1">
            <stop stop-color="#FFB768" offset="0%"></stop>
            <stop stop-color="#FF9953" offset="19.39%"></stop>
            <stop stop-color="#FF652E" offset="56.55%"></stop>
            <stop stop-color="#FF4518" offset="84.57%"></stop>
            <stop stop-color="#FF390F" offset="100%"></stop>
        </linearGradient>
    </defs>
    <g id="Page-1" stroke="none" stroke-width="1" fill="none" fill-rule="evenodd">
        <g id="badges/castbox-badge" transform="translate(1.000000, 1.000000)" fill-rule="nonzero">
            <g id="Group" fill="#FFFFFF" stroke="#9AA0A6" stroke-width="0.5">
                <g id="Rectangle">
                    <rect x="0" y="0" width="165" height="42" rx="8"></rect>
                </g>
            </g>
            <g id="Group" transform="translate(44.000000, 8.000000)" fill="#5F6368">
                <g id="Listen-On" transform="translate(0.236100, 0.280800)">
                    <polygon id="Path" points="3.7217 6.3803 0 6.3803 0 0.4135 0.9263 0.4135 0.9263 5.5282 3.7217 5.5282"></polygon>
                    <path d="M4.7984,0.5459 C4.7984,0.2354 5.0425,-5.55111512e-17 5.3731,-5.55111512e-17 C5.7042,-5.55111512e-17 5.9478,0.2354 5.9478,0.5459 C5.9478,0.8516 5.7041,1.0874 5.3731,1.0874 C5.0425,1.0874 4.7984,0.8515 4.7984,0.5459 Z M4.9307,1.8774 L5.8155,1.8774 L5.8155,6.3803 L4.9307,6.3803 L4.9307,1.8774 Z" id="Shape"></path>
                    <path d="M8.8946,1.7905 C9.9078,1.7905 10.5694,2.2617 10.6558,3.0556 L9.8042,3.0556 C9.7212,2.725 9.3989,2.5141 8.8945,2.5141 C8.3979,2.5141 8.0219,2.7495 8.0219,3.101 C8.0219,3.37 8.2494,3.5395 8.7372,3.6513 L9.4857,3.8246 C10.3417,4.0233 10.7425,4.3915 10.7425,5.0531 C10.7425,5.9008 9.9529,6.4672 8.8778,6.4672 C7.8065,6.4672 7.1078,5.9833 7.0292,5.1855 L7.9184,5.1855 C8.0302,5.5327 8.3608,5.7475 8.8984,5.7475 C9.4526,5.7475 9.8457,5.4995 9.8457,5.1396 C9.8457,4.871 9.6348,4.6972 9.1836,4.5898 L8.398,4.4077 C7.542,4.2051 7.1451,3.8208 7.1451,3.1509 C7.1451,2.3525 7.877,1.7905 8.8946,1.7905 Z" id="Path"></path>
                    <path d="M13.1099,0.7563 L13.1099,1.8979 L14.0855,1.8979 L14.0855,2.6464 L13.1099,2.6464 L13.1099,4.9618 C13.1099,5.4335 13.3042,5.64 13.7466,5.64 C13.8828,5.64 13.9614,5.6317 14.0855,5.6195 L14.0855,6.3597 C13.941,6.3841 13.7754,6.4051 13.6016,6.4051 C12.6133,6.4051 12.2207,6.0574 12.2207,5.1893 L12.2207,2.6463 L11.5054,2.6463 L11.5054,1.8978 L12.2207,1.8978 L12.2207,0.7563 L13.1099,0.7563 Z" id="Path"></path>
                    <path d="M19.0171,5.1645 C18.8145,5.9711 18.0947,6.4672 17.0654,6.4672 C15.7749,6.4672 14.9853,5.5824 14.9853,4.143 C14.9853,2.704 15.7915,1.7905 17.061,1.7905 C18.3139,1.7905 19.0708,2.6465 19.0708,4.0605 L19.0708,4.3706 L15.8906,4.3706 L15.8906,4.4204 C15.9199,5.21 16.3789,5.7104 17.0898,5.7104 C17.6274,5.7104 17.9956,5.5161 18.1611,5.1645 L19.0171,5.1645 Z M15.8907,3.7133 L18.1651,3.7133 C18.1446,3.0063 17.7144,2.5468 17.0572,2.5468 C16.3995,2.5468 15.9405,3.0102 15.8907,3.7133 Z" id="Shape"></path>
                    <path d="M20.2632,1.8774 L21.1192,1.8774 L21.1192,2.5927 L21.1856,2.5927 C21.4044,2.0922 21.8511,1.7905 22.5294,1.7905 C23.5343,1.7905 24.0885,2.394 24.0885,3.4653 L24.0885,6.3803 L23.1993,6.3803 L23.1993,3.6884 C23.1993,2.9648 22.8848,2.6049 22.2276,2.6049 C21.5699,2.6049 21.1524,3.0434 21.1524,3.746 L21.1524,6.3803 L20.2632,6.3803 L20.2632,1.8774 Z" id="Path"></path>
                    <path d="M27.6822,4.1269 C27.6822,2.6752 28.4927,1.7905 29.8077,1.7905 C31.1182,1.7905 31.9288,2.6753 31.9288,4.1269 C31.9288,5.5864 31.1226,6.4672 29.8077,6.4672 C28.4883,6.4672 27.6822,5.5864 27.6822,4.1269 Z M31.0152,4.1269 C31.0152,3.1508 30.5767,2.58 29.8077,2.58 C29.0343,2.58 28.6002,3.1508 28.6002,4.1269 C28.6002,5.1108 29.0343,5.6772 29.8077,5.6772 C30.5767,5.6772 31.0152,5.1069 31.0152,4.1269 Z" id="Shape"></path>
                    <path d="M33.1211,1.8774 L33.9771,1.8774 L33.9771,2.5927 L34.0435,2.5927 C34.2627,2.0922 34.709,1.7905 35.3873,1.7905 C36.3922,1.7905 36.9464,2.394 36.9464,3.4653 L36.9464,6.3803 L36.0572,6.3803 L36.0572,3.6884 C36.0572,2.9648 35.7427,2.6049 35.0855,2.6049 C34.4278,2.6049 34.0103,3.0434 34.0103,3.746 L34.0103,6.3803 L33.1211,6.3803 L33.1211,1.8774 Z" id="Path"></path>
                </g>
            </g>
            <g id="../icons/castbox-icon" transform="translate(7.000000, 5.000000)">
                <path d="M12.9044454,0.274435067 L1.08272227,7.19035714 C0.463565538,7.55310252 0,8.35621119 0,9.0674455 L0,22.9325545 C0,23.6437888 0.463565538,24.4468975 1.08272227,24.8096428 L12.9044454,31.7255649 C13.5300183,32.0914784 14.4699817,32.0914784 15.0955546,31.7255649 L26.9172777,24.8096428 C27.5364345,24.4468975 28,23.6437888 28,22.9325545 L28,9.06586146 C28,8.35462715 27.5364345,7.55151848 26.9172777,7.1887731 L15.0955546,0.274435067 C14.4699817,-0.0914783557 13.5316224,-0.0914783557 12.9044454,0.274435067 Z" id="XMLID_19_" fill="url(#linearGradient-1)"></path>
                <path d="M16.051806,11.7894661 C15.5278458,11.7894661 15.103612,12.1953408 15.103612,12.6951237 L15.103612,14.8852554 C15.103612,15.1622052 14.8487552,15.38663 14.5353288,15.38663 C14.2203195,15.38663 13.9654626,15.1622052 13.9654626,14.8852554 L13.9654626,11.9056576 C13.9654626,11.4058747 13.541229,11 13.0172687,11 C12.4933084,11 12.0690747,11.4058747 12.0690747,11.9056576 L12.0690747,14.2931559 C12.0690747,14.5701056 11.8142179,14.7945305 11.4992085,14.7945305 C11.1857821,14.7945305 10.9309253,14.5701056 10.9309253,14.2931559 L10.9309253,13.4272898 C10.9309253,12.9275069 10.5066916,12.5216322 9.9827313,12.5216322 C9.45877104,12.5216322 9.03453731,12.9275069 9.03453731,13.4272898 L9.03453731,15.4773549 C9.03453731,15.7543047 8.7796805,15.9787296 8.46467116,15.9787296 C8.15124478,15.9787296 7.89638797,15.7543047 7.89638797,15.4773549 L7.89638797,15.2386052 C7.89638797,14.7149472 7.47215424,14.2915642 6.94819399,14.2915642 C6.42423368,14.2915642 6,14.7165389 6,15.2386052 L6,18.0829113 C6,18.6065693 6.42423368,19.0315439 6.94819399,19.0315439 C7.47057128,19.0315439 7.89638797,18.6065693 7.89638797,18.0829113 L7.89638797,17.8441615 C7.89638797,17.5672117 8.15124478,17.3427868 8.46467116,17.3427868 C8.7796805,17.3427868 9.03453731,17.5672117 9.03453731,17.8441615 L9.03453731,21.0943424 C9.03453731,21.5941253 9.45877104,22 9.9827313,22 C10.5051086,22 10.9309253,21.5941253 10.9309253,21.0943424 L10.9309253,16.6599624 C10.9309253,16.3830126 11.1857821,16.1585878 11.4992085,16.1585878 C11.8142179,16.1585878 12.0690747,16.3830126 12.0690747,16.6599624 L12.0690747,18.8946607 C12.0690747,19.3944436 12.4933084,19.8003184 13.0172687,19.8003184 C13.541229,19.8003184 13.9654626,19.3944436 13.9654626,18.8946607 L13.9654626,17.252062 C13.9654626,16.9751121 14.2203195,16.7506873 14.5353288,16.7506873 C14.8487552,16.7506873 15.103612,16.9751121 15.103612,17.252062 L15.103612,19.007669 C15.103612,19.5074519 15.5278458,19.9133266 16.051806,19.9133266 C16.5757663,19.9133266 17,19.5074519 17,19.007669 L17,12.6935321 C17,12.1953408 16.5757663,11.7894661 16.051806,11.7894661" id="XMLID_18_" fill="#FFFFFF"></path>
                <path d="M19,15 C18.4474124,15 18,15.3746694 18,15.836027 L18,19.1639729 C18,19.6253305 18.4474124,20 19,20 C19.5525877,20 20,19.6253305 20,19.1639729 L20,15.836027 C19.9983306,15.3746694 19.5509182,15 19,15" id="XMLID_17_" fill="#FFFFFF"></path>
                <path d="M22,16 C21.4474123,16 21,16.4494712 21,17.0029377 L21,17.9970623 C21,18.5505288 21.4474123,19 22,19 C22.5525876,19 23,18.5505288 23,17.9970623 L23,17.0029377 C23,16.4494712 22.5525876,16 22,16" id="XMLID_16_" fill="#FFFFFF"></path>
            </g>
            <g id="wordmark" transform="translate(43.000000, 19.000000)" fill="#FF6222">
                <path d="M13.3766234,12.1796537 C12.6774892,13.0324675 11.8268398,13.7077922 10.8290043,14.2099567 C9.83116882,14.7121212 8.73160173,14.9632034 7.530303,14.9632034 C6.49134199,14.9632034 5.51731602,14.7727273 4.60822511,14.3939394 C3.6991342,14.0151515 2.9069264,13.4978355 2.23376624,12.8441558 C1.56060606,12.1904762 1.03030303,11.4242425 0.640692641,10.5432901 C0.253246753,9.66233768 0.0584415584,8.71428573 0.0584415584,7.6991342 C0.0584415584,6.68398268 0.253246753,5.73593073 0.640692641,4.85497835 C1.02813853,3.97402597 1.56060606,3.2034632 2.23376624,2.54545454 C2.9069264,1.88528139 3.6991342,1.37012987 4.60822511,0.995670995 C5.51731602,0.623376623 6.49134199,0.435064935 7.530303,0.435064935 C8.73160173,0.435064935 9.83116882,0.686147189 10.8290043,1.18831169 C11.8268398,1.69047619 12.6580087,2.34415585 13.3225108,3.14935065 L11.4502165,5.07575757 C11.017316,4.45670996 10.4610389,3.95887446 9.77922075,3.58008658 C9.09740257,3.2012987 8.34632032,3.01082251 7.530303,3.01082251 C6.87662339,3.01082251 6.26190476,3.13636364 5.68398269,3.38744589 C5.10606061,3.63852814 4.6017316,3.97619047 4.17099567,4.4025974 C3.74025974,4.82900433 3.3982684,5.32467532 3.14718615,5.88961039 C2.8961039,6.45670996 2.77056277,7.05844159 2.77056277,7.7012987 C2.77056277,8.33116882 2.8961039,8.92857143 3.14718615,9.49567098 C3.3982684,10.0627706 3.74025974,10.5584416 4.17099567,10.982684 C4.6017316,11.4090909 5.10822511,11.7467532 5.68398269,11.9978355 C6.26190476,12.2489178 6.87662339,12.3744588 7.530303,12.3744588 C8.39393939,12.3744588 9.15800864,12.1796537 9.82251082,11.7878788 C10.487013,11.3982684 11.0411255,10.8809524 11.4848485,10.2380952 L13.3766234,12.1796537 Z" id="Path"></path>
                <path d="M22.6536796,14.8571429 L20.1341991,14.8571429 L20.1341991,14.1580087 C19.6904762,14.461039 19.2207792,14.6709957 18.7251082,14.7878788 C18.2294372,14.9047619 17.7186147,14.9632034 17.1926407,14.9632034 C16.7034632,14.9632034 16.2597402,14.8896104 15.8614719,14.7445887 C15.465368,14.5995671 15.1212121,14.3896104 14.8290043,14.1147186 C14.5367965,13.8398268 14.3116883,13.517316 14.1558442,13.1428572 C13.9978355,12.7705628 13.9199134,12.3549783 13.9199134,11.9004329 C13.9199134,11.3290043 14.0454545,10.8290043 14.2965368,10.4047619 C14.547619,9.97835495 14.8896104,9.62337661 15.3203463,9.33766234 C15.7510822,9.05194807 16.2575757,8.83982686 16.8333333,8.69913423 C17.4112554,8.55844159 18.0324675,8.48917752 18.6969697,8.48917752 L20.1493507,8.48917752 C20.1493507,7.89393941 19.95671,7.42207793 19.5714286,7.07142859 C19.1861472,6.72077922 18.6320346,6.54545455 17.9090909,6.54545455 C17.5584416,6.54545455 17.1969697,6.61038961 16.8246753,6.73809524 C16.4502164,6.86580089 16.0779221,7.09956709 15.7034632,7.43722943 L14.2164502,5.93290043 C14.7532467,5.41991342 15.3744588,5.02380953 16.0800866,4.74242425 C16.7857143,4.46320347 17.512987,4.32251082 18.2597403,4.32251082 C18.9588745,4.32251082 19.5822511,4.43290043 20.1298701,4.65584416 C20.6753247,4.87662338 21.1168831,5.16450216 21.4545455,5.51298702 C21.8939394,5.95670996 22.2056277,6.45238095 22.3852814,7.00000002 C22.5649351,7.54761907 22.6536796,8.24891775 22.6536796,9.09956707 L22.6536796,14.8571429 Z M20.1341991,12.1796537 L20.1341991,10.3073593 C17.5,10.2316017 16.9155844,10.6147186 16.9155844,10.6147186 C16.6883117,10.7251082 16.5064935,10.8679653 16.3722944,11.04329 C16.2380952,11.2186147 16.1709957,11.4285715 16.1709957,11.6731602 C16.1709957,12.0238095 16.3073593,12.3095238 16.5822511,12.530303 C16.8571428,12.7510822 17.2099567,12.8636364 17.6406927,12.8636364 C17.6406927,12.8614719 18.6406926,12.935065 20.1341991,12.1796537 Z" id="Shape"></path>
                <path d="M32.017316,11.8636364 C32.017316,12.3658008 31.9004329,12.8116883 31.6666666,13.2034632 C31.4329004,13.5952381 31.1277057,13.9220779 30.7532467,14.1839827 C30.3787879,14.4458875 29.9588744,14.6450217 29.491342,14.7792208 C29.0238095,14.9134199 28.5606061,14.9805195 28.1060606,14.9805195 C27.3333333,14.9805195 26.6233766,14.8376624 25.974026,14.551948 C25.3246753,14.2662338 24.7554112,13.8073593 24.2640693,13.1774892 L25.7878788,11.6363637 C26.0909091,12.021645 26.4415585,12.3225108 26.8376624,12.5367965 C27.2337662,12.7532468 27.6601732,12.8614719 28.1147186,12.8614719 C28.5108225,12.8614719 28.8419913,12.7878788 29.1038961,12.6428571 C29.3658009,12.4978355 29.4978355,12.2792208 29.4978355,11.987013 C29.4978355,11.6839827 29.3116883,11.430736 28.9372294,11.2251083 C28.5627706,11.021645 28.038961,10.8203463 27.3614718,10.6212121 C26.9653679,10.504329 26.5800866,10.3549784 26.2056277,10.1753247 C25.8311688,9.99567102 25.5,9.77272725 25.2077922,9.51082248 C24.9155844,9.24891777 24.6818182,8.94805193 24.508658,8.61038959 C24.3333333,8.27272725 24.2467533,7.88095241 24.2467533,7.43722943 C24.2467533,6.94805195 24.3614718,6.5064935 24.5887446,6.11688312 C24.8160173,5.72510823 25.1147186,5.3982684 25.482684,5.13636363 C25.8506493,4.87445888 26.2683982,4.67316017 26.7380952,4.53246753 C27.2056277,4.39177489 27.6796537,4.32251082 28.1580087,4.32251082 C29.7012987,4.32251082 30.965368,4.90692641 31.948052,6.07359308 L30.443723,7.59740257 C30.1515151,7.23593073 29.8203463,6.95021645 29.4458875,6.74025974 C29.0714285,6.53030303 28.6645021,6.42424242 28.2207792,6.42424242 C28.0692641,6.42424242 27.9090909,6.44372294 27.7402597,6.48484848 C27.5714285,6.52597403 27.4134199,6.58441559 27.2683983,6.66017316 C27.1233766,6.73593074 27.0021645,6.83549782 26.9090909,6.95670995 C26.8160173,7.08008659 26.7683983,7.21645023 26.7683983,7.36796536 C26.7683983,7.63636364 26.9458874,7.87012984 27.3030303,8.06709955 C27.6580087,8.26623375 28.1688312,8.46320345 28.8354978,8.66233766 C29.2662337,8.7900433 29.6753247,8.95454543 30.0606061,9.15151514 C30.4458875,9.35064934 30.7835497,9.58008661 31.0757576,9.84199132 C31.3679654,10.1038961 31.5974026,10.4025974 31.7662338,10.7337662 C31.9329004,11.0670995 32.017316,11.443723 32.017316,11.8636364 Z" id="Path"></path>
                <path d="M35.8160173,1.87662338 L36.6385281,1.87662338 L36.6212121,4.32034632 L39.1774892,4.32034632 L39.1948052,6.83982682 L36.6385281,6.83982682 L36.6385281,11.443723 C36.6385281,11.7012987 36.6709957,11.9112554 36.7337663,12.0735931 C36.7987013,12.2380952 36.8831169,12.3658008 36.987013,12.4588745 C37.0930736,12.551948 37.2121212,12.6168831 37.3463204,12.6515152 C37.4805195,12.6861472 37.6233766,12.7034632 37.7748918,12.7034632 C37.974026,12.7034632 38.2121212,12.6688312 38.4935065,12.5974026 C38.7727273,12.5281385 39.012987,12.4112554 39.2121212,12.2467533 L39.2121212,14.469697 C38.9545454,14.6341992 38.6580087,14.7554112 38.3203463,14.8376624 C37.982684,14.9199134 37.6428571,14.9610389 37.3051948,14.9610389 C36.7099567,14.9610389 36.2077922,14.8874459 35.8008658,14.7424242 C35.3917749,14.5974026 35.064935,14.3722944 34.8203463,14.069264 C34.5757576,13.7662338 34.3982684,13.3809524 34.2857143,12.9134199 C34.1753247,12.4458875 34.1190476,11.8982684 34.1190476,11.2683983 L34.1190476,6.83982682 L32.7878788,6.83982682 L32.7878788,4.59090909 C35.6666667,4.59090909 35.8160173,1.87662338 35.8160173,1.87662338" id="Path"></path>
                <path d="M50.430736,9.64069261 C50.430736,10.3528139 50.3116883,11.030303 50.0714285,11.6709957 C49.8311688,12.3138528 49.495671,12.8766234 49.0627706,13.3593074 C48.6298701,13.8441558 48.1147186,14.2294373 47.5194805,14.5151515 C46.9220779,14.8008658 46.2683983,14.9437229 45.5541125,14.9437229 C45.1103896,14.9437229 44.6948052,14.8831169 44.3073593,14.7597402 C43.9220779,14.6363637 43.5584416,14.4415585 43.2186147,14.1731602 L43.2186147,14.8679654 L40.6991342,14.8679654 L40.6991342,0.173160173 L43.2359307,0.173160173 L43.2532467,5.07359307 C43.5454546,4.83982684 43.8917749,4.65367966 44.2943723,4.51298701 C44.6969697,4.37229437 45.1190476,4.3030303 45.5627705,4.3030303 C46.1818182,4.3030303 46.7813853,4.43939394 47.3658009,4.71428571 C47.9480519,4.98917749 48.4675325,5.36580087 48.9242425,5.84415584 C49.3787879,6.32251082 49.7445888,6.88528139 50.017316,7.5324675 C50.2922078,8.17965368 50.430736,8.88311686 50.430736,9.64069261 Z M47.8744589,9.64069261 C47.8744589,9.1731602 47.8051948,8.74891773 47.6645022,8.36363639 C47.5238095,7.97835498 47.3268398,7.64935064 47.0757575,7.37445886 C46.8246753,7.09956709 46.525974,6.88961039 46.1796537,6.74458874 C45.8333333,6.5995671 45.4502165,6.52597403 45.0281385,6.52597403 C44.7575757,6.52597403 44.448052,6.58225108 44.0974026,6.6926407 C43.7467533,6.8030303 43.4523809,6.94588745 43.2186147,7.12121209 L43.2186147,11.987013 C43.7683983,12.4891775 44.3896104,12.7402598 45.0800866,12.7402598 C45.478355,12.7402598 45.8506493,12.6645022 46.1948052,12.512987 C46.5411256,12.3614718 46.8354978,12.1493506 47.0822511,11.8744589 C47.3290043,11.5995671 47.521645,11.2727272 47.6623377,10.8939394 C47.8051948,10.512987 47.8744589,10.0952381 47.8744589,9.64069261 Z" id="Shape"></path>
                <path d="M62.4545455,9.64069261 C62.4545455,10.3982684 62.3138528,11.1017316 62.034632,11.7489177 C61.7554113,12.3961039 61.3701299,12.95671 60.8787879,13.4285714 C60.3896104,13.9004329 59.8138528,14.2748917 59.1536797,14.5497835 C58.4935065,14.8246753 57.7922078,14.9610389 57.0454546,14.9610389 C56.2987013,14.9610389 55.5995671,14.8246753 54.9458875,14.5497835 C54.2922078,14.2748917 53.7207792,13.9004329 53.2316017,13.4199134 C52.7424243,12.9415585 52.3571429,12.3787879 52.0757576,11.7316017 C51.7965368,11.0844156 51.6558442,10.3874459 51.6558442,9.64069261 C51.6558442,8.90476193 51.7987013,8.21428568 52.0844156,7.56709957 C52.3701299,6.91991339 52.7575758,6.35281385 53.2489177,5.87012987 C53.7380952,5.38528139 54.3116883,5.0064935 54.9632035,4.73160173 C55.6168831,4.45670996 56.3116883,4.32034632 57.0454546,4.32034632 C57.7922078,4.32034632 58.495671,4.45670996 59.1536797,4.73160173 C59.8138528,5.0064935 60.3874459,5.37878788 60.8787879,5.85281385 C61.3679654,6.32467533 61.7532468,6.88961039 62.034632,7.54112557 C62.3138528,8.19480518 62.4545455,8.89393936 62.4545455,9.64069261 Z M59.9329004,9.64069261 C59.9329004,9.2099567 59.8571429,8.8073593 59.7056277,8.43290045 C59.5541125,8.06060606 59.3484848,7.7337662 59.0865801,7.45238093 C58.8246753,7.17099566 58.5194805,6.95454545 58.1709957,6.7965368 C57.8225108,6.63852814 57.4502165,6.56060606 57.0541126,6.56060606 C56.6580087,6.56060606 56.2857143,6.63852814 55.9372294,6.7965368 C55.5887446,6.95454545 55.2835498,7.17316016 55.021645,7.45238093 C54.7597402,7.7316017 54.5541125,8.05844155 54.4025974,8.43290045 C54.2510823,8.8073593 54.1753247,9.2099567 54.1753247,9.64069261 C54.1753247,10.0735931 54.2510823,10.4761905 54.4025974,10.8484848 C54.5541125,11.2229438 54.7597402,11.547619 55.021645,11.8290043 C55.2835498,12.1103896 55.5887446,12.3268398 55.9372294,12.4848485 C56.2857143,12.6428571 56.6580087,12.7207793 57.0541126,12.7207793 C57.4502165,12.7207793 57.8225108,12.6428571 58.1709957,12.4848485 C58.5194805,12.3268398 58.8246753,12.1082251 59.0865801,11.8290043 C59.3484848,11.5497835 59.5541125,11.2229438 59.7056277,10.8484848 C59.8571429,10.4761905 59.9329004,10.0735931 59.9329004,9.64069261 Z" id="Shape"></path>
                <polygon id="Path" points="72.816017 14.8181818 69.9285716 14.8181818 67.8290043 11.478355 65.7121212 14.8181818 62.8246753 14.8181818 66.4307359 9.41341991 63.1147186 4.2943723 65.9675325 4.2943723 67.8311688 7.40043293 69.6601732 4.2943723 72.5303032 4.2943723 69.2142859 9.41341991"></polygon>
            </g>
        </g>
    </g>
</svg>