<?xml version="1.0" encoding="UTF-8"?>
<svg width="167px" height="43px" viewBox="0 0 167 43" version="1.1" xmlns="http://www.w3.org/2000/svg" xmlns:xlink="http://www.w3.org/1999/xlink">
    <title>badges/googlepodcasts-badge</title>
    <g id="Page-1" stroke="none" stroke-width="1" fill="none" fill-rule="evenodd">
        <g id="badges/googlepodcasts-badge" transform="translate(1.000000, 0.500000)" fill-rule="nonzero">
            <g id="Group" fill="#FFFFFF" stroke="#9AA0A6" stroke-width="0.5">
                <g id="Rectangle">
                    <rect x="0" y="0" width="165" height="42" rx="8"></rect>
                </g>
            </g>
            <g id="_logo_Podcasts_192px" transform="translate(7.000000, 6.500000)">
                <polygon id="Shape" fill="#FAB908" points="12.25 8.90909091 12.25 13.1520455 12.25 14.8479545 12.25 19.0909091 15.75 19.0909091 15.75 14.8479545 15.75 13.1520455 15.75 8.90909091"></polygon>
                <circle id="Oval" fill="#0066D9" cx="1.75" cy="13.0454545" r="1.75"></circle>
                <circle id="Oval" fill="#0066D9" cx="1.75" cy="14.9545455" r="1.75"></circle>
                <rect id="Rectangle-path" fill="#0066D9" x="0" y="13.0454545" width="3.5" height="1.90909091"></rect>
                <circle id="Oval" fill="#4285F4" cx="26.25" cy="14.9545455" r="1.75"></circle>
                <circle id="Oval" fill="#4285F4" cx="26.25" cy="13.0454545" r="1.75"></circle>
                <rect id="Rectangle-path" fill="#4285F4" transform="translate(26.250000, 14.000000) rotate(180.000000) translate(-26.250000, -14.000000) " x="24.5" y="13.0454545" width="3.5" height="1.90909091"></rect>
                <circle id="Oval" fill="#EA4335" cx="7.79545455" cy="18.7727273" r="1.75"></circle>
                <circle id="Oval" fill="#EA4335" cx="7.79545455" cy="20.6818182" r="1.75"></circle>
                <rect id="Rectangle-path" fill="#EA4335" x="6.04545455" y="18.7727273" width="3.5" height="1.90909091"></rect>
                <circle id="Oval" fill="#EA4335" cx="7.79545455" cy="7.31818182" r="1.75"></circle>
                <circle id="Oval" fill="#EA4335" cx="7.79545455" cy="13.5227273" r="1.75"></circle>
                <rect id="Rectangle-path" fill="#EA4335" x="6.04545455" y="7.31818182" width="3.5" height="6.24431818"></rect>
                <circle id="Oval" fill="#34A853" cx="20.2045455" cy="9.22727273" r="1.75"></circle>
                <circle id="Oval" fill="#34A853" cx="20.2045455" cy="7.31818182" r="1.75"></circle>
                <rect id="Rectangle-path" fill="#34A853" transform="translate(20.204545, 8.272727) rotate(180.000000) translate(-20.204545, -8.272727) " x="18.4545455" y="7.31818182" width="3.5" height="1.90909091"></rect>
                <circle id="Oval" fill="#FAB908" cx="14" cy="3.65909091" r="1.75"></circle>
                <circle id="Oval" fill="#FAB908" cx="14" cy="1.75" r="1.75"></circle>
                <rect id="Rectangle-path" fill="#FAB908" transform="translate(14.000000, 2.704545) rotate(180.000000) translate(-14.000000, -2.704545) " x="12.25" y="1.75" width="3.5" height="1.90909091"></rect>
                <circle id="Oval" fill="#FAB908" cx="14" cy="26.25" r="1.75"></circle>
                <circle id="Oval" fill="#FAB908" cx="14" cy="24.3409091" r="1.75"></circle>
                <rect id="Rectangle-path" fill="#FAB908" transform="translate(14.000000, 25.295455) rotate(180.000000) translate(-14.000000, -25.295455) " x="12.25" y="24.3409091" width="3.5" height="1.90909091"></rect>
                <circle id="Oval" fill="#34A853" cx="20.2045455" cy="20.6818182" r="1.75"></circle>
                <circle id="Oval" fill="#34A853" cx="20.2045455" cy="14.4772727" r="1.75"></circle>
                <rect id="Rectangle-path" fill="#34A853" transform="translate(20.204545, 17.579545) rotate(180.000000) translate(-20.204545, -17.579545) " x="18.4545455" y="14.4772727" width="3.5" height="6.20454545"></rect>
                <circle id="Oval" fill="#FAB908" cx="14" cy="8.90909091" r="1.75"></circle>
                <circle id="Oval" fill="#FAB908" cx="14" cy="19.0909091" r="1.75"></circle>
            </g>
            <g id="wordmark" transform="translate(43.000000, 17.500000)" fill="#3C4043">
                <path d="M55.7746752,12.75 L54.353,12.75 L54.353,1.93044445 L58.1235299,1.93044445 C59.0610161,1.93044445 59.87229,2.23518214 60.557376,2.84466667 C61.2424621,3.45415119 61.585,4.22229166 61.585,5.14911111 C61.585,6.07593056 61.2424621,6.84407103 60.557376,7.45355555 C59.87229,8.06304009 59.0610161,8.36777778 58.1235299,8.36777778 L55.7746752,8.36777778 L55.7746752,12.75 Z M55.7746752,7.038 L58.1544359,7.038 C58.7519545,7.038 59.2309924,6.84155752 59.5915641,6.44866667 C59.9521357,6.05577581 60.1324188,5.62259496 60.1324188,5.14911111 C60.1324188,4.67562726 59.9521357,4.24244641 59.5915641,3.84955555 C59.2309924,3.4566647 58.7519545,3.26022222 58.1544359,3.26022222 L55.7746752,3.26022222 L55.7746752,7.038 Z M62.7637735,6.23711111 C63.4952188,5.48155178 64.42754,5.10377778 65.5607649,5.10377778 C66.69399,5.10377778 67.6263112,5.47903329 68.3577565,6.22955555 C69.0892016,6.98007783 69.4549188,7.91947584 69.4549188,9.04777778 C69.4549188,10.1760797 69.0892016,11.1154777 68.3577565,11.866 C67.6263112,12.6165223 66.69399,12.9917778 65.5607649,12.9917778 C64.42754,12.9917778 63.4952188,12.6165223 62.7637735,11.866 C62.0323283,11.1154777 61.6666111,10.1760797 61.6666111,9.04777778 C61.6666111,7.91947584 62.0323283,6.98259632 62.7637735,6.23711111 Z M63.8145769,10.9971111 C64.3090751,11.4806691 64.891132,11.7224444 65.5607649,11.7224444 C66.230398,11.7224444 66.8098793,11.4781506 67.2992265,10.9895556 C67.7885737,10.5009605 68.0332435,9.85370773 68.0332435,9.04777778 C68.0332435,8.24184782 67.7885737,7.59459503 67.2992265,7.106 C66.8098793,6.61740497 66.230398,6.37311111 65.5607649,6.37311111 C64.891132,6.37311111 64.3116506,6.61740497 63.8223034,7.106 C63.3329563,7.59459503 63.0882863,8.24184782 63.0882863,9.04777778 C63.0882863,9.85370773 63.3303807,10.503479 63.8145769,10.9971111 Z M73.7397435,12.9917778 C72.7610492,12.9917778 71.9162942,12.6140038 71.2054529,11.8584444 C70.4946118,11.1028851 70.1391966,10.1660056 70.1391966,9.04777778 C70.1391966,7.92954997 70.4946118,6.99267045 71.2054529,6.23711111 C71.9162942,5.48155178 72.7610492,5.10377778 73.7397435,5.10377778 C74.3166581,5.10377778 74.8343282,5.22466546 75.2927692,5.46644445 C75.7512102,5.70822343 76.0937481,6.01044263 76.3203932,6.37311111 L76.3822051,6.37311111 L76.3203932,5.34555555 L76.3203932,1.93044445 L77.7420683,1.93044445 L77.7420683,12.75 L76.3822051,12.75 L76.3822051,11.7224444 L76.3203932,11.7224444 C76.0937481,12.0851129 75.7512102,12.3873321 75.2927692,12.6291111 C74.8343282,12.8708902 74.3166581,12.9917778 73.7397435,12.9917778 Z M73.9715385,11.7224444 C74.6411715,11.7224444 75.2103509,11.4806691 75.679094,10.9971111 C76.1478371,10.5135531 76.3822051,9.86378186 76.3822051,9.04777778 C76.3822051,8.2317737 76.1478371,7.58200242 75.679094,7.09844445 C75.2103509,6.61488647 74.6411715,6.37311111 73.9715385,6.37311111 C73.3122076,6.37311111 72.7456034,6.61740497 72.2717094,7.106 C71.7978153,7.59459503 71.5608718,8.24184782 71.5608718,9.04777778 C71.5608718,9.85370773 71.7978153,10.5009605 72.2717094,10.9895556 C72.7456034,11.4781506 73.3122076,11.7224444 73.9715385,11.7224444 Z M82.6759188,12.9917778 C81.5426938,12.9917778 80.6103727,12.6165223 79.8789274,11.866 C79.1474821,11.1154777 78.7817649,10.1760797 78.7817649,9.04777778 C78.7817649,7.91947584 79.1474821,6.98007783 79.8789274,6.22955555 C80.6103727,5.47903329 81.5426938,5.10377778 82.6759188,5.10377778 C83.5206865,5.10377778 84.2212151,5.30525725 84.7775257,5.70822222 C85.3338361,6.1111872 85.7407608,6.61992285 85.998312,7.23444445 L84.7002606,7.76333333 C84.3087829,6.83651389 83.6031034,6.37311111 82.5832009,6.37311111 C81.9547761,6.37311111 81.4010494,6.62496045 80.9220043,7.12866667 C80.4429592,7.63237289 80.2034402,8.27207019 80.2034402,9.04777778 C80.2034402,9.82348536 80.4429592,10.4631827 80.9220043,10.9668889 C81.4010494,11.4705951 81.9547761,11.7224444 82.5832009,11.7224444 C83.6443115,11.7224444 84.3757459,11.2590417 84.7775257,10.3322222 L86.0446709,10.8611111 C85.7871198,11.4655586 85.3724687,11.9717757 84.8007051,12.3797778 C84.2289416,12.7877798 83.5206865,12.9917778 82.6759188,12.9917778 Z M89.4177692,12.9917778 C88.6142097,12.9917778 87.9420112,12.7651134 87.4011538,12.3117778 C86.8602965,11.8584422 86.5898718,11.2590408 86.5898718,10.5135556 C86.5898718,9.7076256 86.9092304,9.07548377 87.5479572,8.61711111 C88.1866841,8.15873845 88.9747788,7.92955555 89.9122649,7.92955555 C90.7467307,7.92955555 91.4318065,8.08066515 91.9675128,8.38288889 L91.9675128,8.17133333 C91.9675128,7.62733061 91.7769278,7.19163127 91.3957522,6.86422222 C91.0145765,6.53681318 90.5458404,6.37311111 89.9895299,6.37311111 C89.577448,6.37311111 89.2040045,6.46881386 88.869188,6.66022222 C88.5343715,6.85163059 88.3051545,7.11355389 88.1815299,7.446 L86.8834786,6.902 C87.0586135,6.45873853 87.4037268,6.04822411 87.9188291,5.67044445 C88.4339314,5.29266478 89.1138562,5.10377778 89.958624,5.10377778 C90.9270162,5.10377778 91.7305637,5.38081205 92.3692906,5.93488889 C93.0080174,6.48896573 93.327376,7.26969867 93.327376,8.27711111 L93.327376,12.75 L91.9675128,12.75 L91.9675128,11.7224444 L91.9057009,11.7224444 C91.3390884,12.568671 90.5097861,12.9917778 89.4177692,12.9917778 Z M89.6495641,11.7224444 C90.2367807,11.7224444 90.7699036,11.5083725 91.2489488,11.0802222 C91.7279939,10.6520719 91.9675128,10.1458548 91.9675128,9.56155555 C91.5657331,9.23918357 90.9630724,9.078 90.1595128,9.078 C89.4692757,9.078 88.9490302,9.22407261 88.5987606,9.51622222 C88.2484912,9.80837183 88.0733589,10.1508869 88.0733589,10.5437778 C88.0733589,10.9064463 88.2330382,11.1935545 88.5524017,11.4051111 C88.8717652,11.6166677 89.2374823,11.7224444 89.6495641,11.7224444 Z M97.4885769,12.9917778 C96.6438092,12.9917778 95.945856,12.7902983 95.3946966,12.3873333 C94.8435371,11.9843684 94.4391879,11.4806697 94.1816368,10.8762222 L95.448782,10.3624444 C95.8505618,11.2892639 96.5356376,11.7526667 97.5040299,11.7526667 C97.9470179,11.7526667 98.3101596,11.6569639 98.5934658,11.4655556 C98.8767721,11.2741472 99.0184231,11.0222979 99.0184231,10.71 C99.0184231,10.226442 98.6733098,9.89903789 97.9830726,9.72777778 L96.4532265,9.36511111 C95.9690303,9.24422162 95.5105962,9.01503873 95.0779103,8.67755555 C94.6452244,8.34007239 94.4288846,7.88422509 94.4288846,7.31 C94.4288846,6.65518191 94.7250639,6.12377982 95.3174317,5.71577778 C95.9097993,5.30777574 96.6129033,5.10377778 97.4267649,5.10377778 C98.096398,5.10377778 98.6939077,5.25236889 99.219312,5.54955555 C99.7447163,5.84674223 100.120735,6.2723676 100.34738,6.82644445 L99.1111411,7.32511111 C98.8329857,6.67029302 98.2560799,6.34288889 97.380406,6.34288889 C96.9580221,6.34288889 96.6026069,6.42851766 96.3141495,6.59977778 C96.0256923,6.77103789 95.8814658,7.00273928 95.8814658,7.29488889 C95.8814658,7.71800211 96.2162773,8.00511035 96.8859103,8.15622222 L98.3848505,8.50377778 C99.0956916,8.66496377 99.6210881,8.94199803 99.9610555,9.33488889 C100.301023,9.72777974 100.471004,10.1710346 100.471004,10.6646667 C100.471004,11.3295589 100.192853,11.8836274 99.6365428,12.3268889 C99.0802322,12.7701503 98.3642508,12.9917778 97.4885769,12.9917778 Z M104.724923,12.8708889 C103.931666,12.8708889 103.326429,12.6643725 102.909197,12.2513333 C102.491964,11.8382942 102.28335,11.2540038 102.28335,10.4984444 L102.28335,6.61488889 L100.954393,6.61488889 L100.954393,5.34555555 L102.28335,5.34555555 L102.28335,3.07888889 L103.705026,3.07888889 L103.705026,5.34555555 L105.559385,5.34555555 L105.559385,6.61488889 L103.705026,6.61488889 L103.705026,10.3926667 C103.705026,11.1985966 104.044988,11.6015556 104.724923,11.6015556 C104.982474,11.6015556 105.198814,11.5612597 105.373949,11.4806667 L105.868444,12.6744445 C105.559383,12.8054081 105.178213,12.8708889 104.724923,12.8708889 Z M109.705132,12.9917778 C108.860365,12.9917778 108.162412,12.7902983 107.611252,12.3873333 C107.060093,11.9843684 106.655743,11.4806697 106.398192,10.8762222 L107.665338,10.3624444 C108.067117,11.2892639 108.752193,11.7526667 109.720586,11.7526667 C110.163573,11.7526667 110.526715,11.6569639 110.810021,11.4655556 C111.093328,11.2741472 111.234979,11.0222979 111.234979,10.71 C111.234979,10.226442 110.889865,9.89903789 110.199628,9.72777778 L108.669782,9.36511111 C108.185586,9.24422162 107.727152,9.01503873 107.294466,8.67755555 C106.86178,8.34007239 106.64544,7.88422509 106.64544,7.31 C106.64544,6.65518191 106.941619,6.12377982 107.533987,5.71577778 C108.126355,5.30777574 108.829459,5.10377778 109.64332,5.10377778 C110.312954,5.10377778 110.910463,5.25236889 111.435868,5.54955555 C111.961272,5.84674223 112.337291,6.2723676 112.563936,6.82644445 L111.327697,7.32511111 C111.049541,6.67029302 110.472635,6.34288889 109.596962,6.34288889 C109.174578,6.34288889 108.819162,6.42851766 108.530705,6.59977778 C108.242248,6.77103789 108.098021,7.00273928 108.098021,7.29488889 C108.098021,7.71800211 108.432833,8.00511035 109.102466,8.15622222 L110.601406,8.50377778 C111.312247,8.66496377 111.837644,8.94199803 112.177611,9.33488889 C112.517579,9.72777974 112.68756,10.1710346 112.68756,10.6646667 C112.68756,11.3295589 112.409409,11.8836274 111.853098,12.3268889 C111.296788,12.7701503 110.580806,12.9917778 109.705132,12.9917778 Z" id="Podcasts"></path>
                <path d="M0.362179488,6.78819445 C0.362179488,3.36458333 3.29583334,0.590277778 6.79690171,0.590277778 C8.72852565,0.590277778 10.1048077,1.33402778 11.1430556,2.30208333 L9.91164529,3.49444445 C9.17521368,2.80972222 8.17318376,2.27847222 6.79690171,2.27847222 C4.24957265,2.27847222 2.25758548,4.28541667 2.25758548,6.77638889 C2.25758548,9.26736111 4.24957265,11.2743056 6.79690171,11.2743056 C8.45085471,11.2743056 9.39252137,10.625 9.99615385,10.0347222 C10.4911325,9.55069445 10.817094,8.85416667 10.9378205,7.90972222 L6.79690171,7.90972222 L6.79690171,6.22152778 L12.6279914,6.22152778 C12.6883548,6.52847222 12.7245726,6.88263889 12.7245726,7.28402778 C12.7245726,8.55902778 12.3744658,10.1291667 11.2275641,11.2388889 C10.1048077,12.3722222 8.68023505,12.9743055 6.79690171,12.9743055 C3.29583334,12.9743055 0.362179488,10.2 0.362179488,6.78819445 Z M17.3725428,5.07638889 C19.6301282,5.07638889 21.4651709,6.75277778 21.4651709,9.06666667 C21.4651709,11.36875 19.6301282,13.0569445 17.3725428,13.0569445 C15.1149572,13.0569445 13.2799145,11.36875 13.2799145,9.06666667 C13.2799145,6.75277778 15.1149572,5.07638889 17.3725428,5.07638889 Z M17.3725428,11.475 C18.6039529,11.475 19.6784188,10.4833333 19.6784188,9.05486111 C19.6784188,7.61458333 18.6039529,6.63472222 17.3725428,6.63472222 C16.1290598,6.63472222 15.0666666,7.61458333 15.0666666,9.05486111 C15.0666666,10.4833333 16.1411325,11.475 17.3725428,11.475 Z M26.3063034,5.07638889 C28.5638889,5.07638889 30.3989317,6.75277778 30.3989317,9.06666667 C30.3989317,11.36875 28.5638889,13.0569445 26.3063034,13.0569445 C24.048718,13.0569445 22.2136752,11.36875 22.2136752,9.06666667 C22.2136752,6.75277778 24.048718,5.07638889 26.3063034,5.07638889 Z M26.3063034,11.475 C27.5377137,11.475 28.6121795,10.4833333 28.6121795,9.05486111 C28.6121795,7.61458333 27.5497863,6.63472222 26.3063034,6.63472222 C25.0628205,6.63472222 24.0004274,7.61458333 24.0004274,9.05486111 C24.0004274,10.4833333 25.0748932,11.475 26.3063034,11.475 Z M37.2682692,5.20625 L38.9825855,5.20625 L38.9825855,12.3722222 C38.9825855,15.3236111 37.207906,16.5277778 35.1072649,16.5277778 C33.1273505,16.5277778 31.9321581,15.2291667 31.4854701,14.1666667 L33.0428419,13.5291667 C33.3205128,14.1784722 33.9965812,14.9458333 35.0951923,14.9458333 C36.4352565,14.9458333 37.2682692,14.13125 37.2682692,12.6083333 L37.2682692,12.0298611 L37.207906,12.0298611 C36.8095086,12.5138889 36.0368589,12.9388889 35.0589743,12.9388889 C33.0186966,12.9388889 31.1474359,11.1916667 31.1474359,8.96041667 C31.1474359,6.70555555 33.0186966,4.95833333 35.0589743,4.95833333 C36.0368589,4.95833333 36.8095086,5.38333333 37.207906,5.85555555 L37.2682692,5.85555555 L37.2682692,5.20625 Z M35.2159188,11.36875 C36.4352565,11.36875 37.4010683,10.3652778 37.3889957,8.96041667 C37.3889957,7.55555555 36.4352565,6.52847222 35.2159188,6.52847222 C33.9845086,6.52847222 32.9462606,7.55555555 32.9462606,8.96041667 C32.9462606,10.3534722 33.9845086,11.36875 35.2159188,11.36875 Z M40.2019231,12.7854167 L40.2019231,1.0625 L41.9886752,1.0625 L41.9886752,12.7854167 L40.2019231,12.7854167 Z M46.9022435,11.475 C47.8197649,11.475 48.4475428,11.0381944 48.918376,10.3770833 L50.3067308,11.2861111 C49.8479701,11.9354167 48.7735043,13.0569445 46.9022435,13.0569445 C44.5842949,13.0569445 42.857906,11.2979167 42.857906,9.06666667 C42.857906,6.69375 44.6084402,5.07638889 46.7090812,5.07638889 C48.8217949,5.07638889 49.8600428,6.71736111 50.1980769,7.61458333 L50.3791666,8.06319445 L44.9223291,10.2708333 C45.3448718,11.0618056 45.9847222,11.475 46.9022435,11.475 Z M46.7694445,6.61111111 C45.8519231,6.61111111 44.5842949,7.40208333 44.6325855,8.93680555 L48.2785257,7.46111111 C48.0853632,6.95347222 47.4817308,6.61111111 46.7694445,6.61111111 Z" id="Combined-Shape"></path>
            </g>
            <g id="Group" transform="translate(44.000000, 7.500000)" fill="#5F6368">
                <g id="Listen-On" transform="translate(0.236100, 0.280800)">
                    <polygon id="Path" points="3.7217 6.3803 0 6.3803 0 0.4135 0.9263 0.4135 0.9263 5.5282 3.7217 5.5282"></polygon>
                    <path d="M4.7984,0.5459 C4.7984,0.2354 5.0425,-5.55111512e-17 5.3731,-5.55111512e-17 C5.7042,-5.55111512e-17 5.9478,0.2354 5.9478,0.5459 C5.9478,0.8516 5.7041,1.0874 5.3731,1.0874 C5.0425,1.0874 4.7984,0.8515 4.7984,0.5459 Z M4.9307,1.8774 L5.8155,1.8774 L5.8155,6.3803 L4.9307,6.3803 L4.9307,1.8774 Z" id="Shape"></path>
                    <path d="M8.8946,1.7905 C9.9078,1.7905 10.5694,2.2617 10.6558,3.0556 L9.8042,3.0556 C9.7212,2.725 9.3989,2.5141 8.8945,2.5141 C8.3979,2.5141 8.0219,2.7495 8.0219,3.101 C8.0219,3.37 8.2494,3.5395 8.7372,3.6513 L9.4857,3.8246 C10.3417,4.0233 10.7425,4.3915 10.7425,5.0531 C10.7425,5.9008 9.9529,6.4672 8.8778,6.4672 C7.8065,6.4672 7.1078,5.9833 7.0292,5.1855 L7.9184,5.1855 C8.0302,5.5327 8.3608,5.7475 8.8984,5.7475 C9.4526,5.7475 9.8457,5.4995 9.8457,5.1396 C9.8457,4.871 9.6348,4.6972 9.1836,4.5898 L8.398,4.4077 C7.542,4.2051 7.1451,3.8208 7.1451,3.1509 C7.1451,2.3525 7.877,1.7905 8.8946,1.7905 Z" id="Path"></path>
                    <path d="M13.1099,0.7563 L13.1099,1.8979 L14.0855,1.8979 L14.0855,2.6464 L13.1099,2.6464 L13.1099,4.9618 C13.1099,5.4335 13.3042,5.64 13.7466,5.64 C13.8828,5.64 13.9614,5.6317 14.0855,5.6195 L14.0855,6.3597 C13.941,6.3841 13.7754,6.4051 13.6016,6.4051 C12.6133,6.4051 12.2207,6.0574 12.2207,5.1893 L12.2207,2.6463 L11.5054,2.6463 L11.5054,1.8978 L12.2207,1.8978 L12.2207,0.7563 L13.1099,0.7563 Z" id="Path"></path>
                    <path d="M19.0171,5.1645 C18.8145,5.9711 18.0947,6.4672 17.0654,6.4672 C15.7749,6.4672 14.9853,5.5824 14.9853,4.143 C14.9853,2.704 15.7915,1.7905 17.061,1.7905 C18.3139,1.7905 19.0708,2.6465 19.0708,4.0605 L19.0708,4.3706 L15.8906,4.3706 L15.8906,4.4204 C15.9199,5.21 16.3789,5.7104 17.0898,5.7104 C17.6274,5.7104 17.9956,5.5161 18.1611,5.1645 L19.0171,5.1645 Z M15.8907,3.7133 L18.1651,3.7133 C18.1446,3.0063 17.7144,2.5468 17.0572,2.5468 C16.3995,2.5468 15.9405,3.0102 15.8907,3.7133 Z" id="Shape"></path>
                    <path d="M20.2632,1.8774 L21.1192,1.8774 L21.1192,2.5927 L21.1856,2.5927 C21.4044,2.0922 21.8511,1.7905 22.5294,1.7905 C23.5343,1.7905 24.0885,2.394 24.0885,3.4653 L24.0885,6.3803 L23.1993,6.3803 L23.1993,3.6884 C23.1993,2.9648 22.8848,2.6049 22.2276,2.6049 C21.5699,2.6049 21.1524,3.0434 21.1524,3.746 L21.1524,6.3803 L20.2632,6.3803 L20.2632,1.8774 Z" id="Path"></path>
                    <path d="M27.6822,4.1269 C27.6822,2.6752 28.4927,1.7905 29.8077,1.7905 C31.1182,1.7905 31.9288,2.6753 31.9288,4.1269 C31.9288,5.5864 31.1226,6.4672 29.8077,6.4672 C28.4883,6.4672 27.6822,5.5864 27.6822,4.1269 Z M31.0152,4.1269 C31.0152,3.1508 30.5767,2.58 29.8077,2.58 C29.0343,2.58 28.6002,3.1508 28.6002,4.1269 C28.6002,5.1108 29.0343,5.6772 29.8077,5.6772 C30.5767,5.6772 31.0152,5.1069 31.0152,4.1269 Z" id="Shape"></path>
                    <path d="M33.1211,1.8774 L33.9771,1.8774 L33.9771,2.5927 L34.0435,2.5927 C34.2627,2.0922 34.709,1.7905 35.3873,1.7905 C36.3922,1.7905 36.9464,2.394 36.9464,3.4653 L36.9464,6.3803 L36.0572,6.3803 L36.0572,3.6884 C36.0572,2.9648 35.7427,2.6049 35.0855,2.6049 C34.4278,2.6049 34.0103,3.0434 34.0103,3.746 L34.0103,6.3803 L33.1211,6.3803 L33.1211,1.8774 Z" id="Path"></path>
                </g>
            </g>
        </g>
    </g>
</svg>