<?xml version="1.0" standalone="no"?>
<!DOCTYPE svg PUBLIC "-//W3C//DTD SVG 20010904//EN"
 "http://www.w3.org/TR/2001/REC-SVG-20010904/DTD/svg10.dtd">
<svg version="1.0" xmlns="http://www.w3.org/2000/svg"
 width="375.000000pt" height="375.000000pt" viewBox="0 0 375.000000 375.000000"
 preserveAspectRatio="xMidYMid meet">
<metadata>
Created by potrace 1.14, written by Peter Selinger 2001-2017
</metadata>
<g transform="translate(0.000000,375.000000) scale(0.100000,-0.100000)"
fill="#000000" stroke="none">
<path d="M1155 2311 c-3 -3 -12 -6 -19 -7 -19 -3 -154 -16 -196 -19 -19 -2
-37 -4 -40 -5 -3 -1 -8 -2 -11 -2 -3 1 -38 -94 -78 -211 -39 -117 -75 -219
-78 -227 -8 -19 -8 -20 -18 -55 -4 -16 -10 -34 -13 -39 -3 -5 -35 -97 -72
-205 -37 -108 -82 -239 -100 -291 -49 -142 -97 -219 -138 -220 -25 0 -37 -25
-40 -85 l-2 -60 212 -1 c117 0 241 -3 275 -6 40 -3 66 -1 72 6 13 16 21 125
10 132 -5 3 -38 6 -72 6 -72 1 -114 18 -119 50 -4 21 22 128 53 221 11 32 17
37 43 38 17 0 49 3 71 5 133 16 306 7 304 -14 -1 -4 0 -9 1 -12 1 -3 3 -12 5
-20 1 -8 10 -44 20 -79 9 -35 18 -77 20 -93 4 -28 -11 -77 -24 -79 -3 0 -15
-3 -26 -5 -11 -3 -38 -8 -60 -11 -22 -3 -43 -8 -47 -12 -9 -8 -17 -117 -9
-130 4 -5 37 -7 76 -5 39 3 174 6 300 7 127 2 235 5 241 9 15 10 12 134 -4
130 -20 -4 -96 37 -114 61 -19 28 -94 248 -113 332 -4 20 -27 106 -66 245 -11
41 -22 86 -24 99 -2 13 -8 35 -13 50 -10 25 -30 99 -36 131 -2 8 -5 22 -9 30
-3 8 -22 83 -42 165 -21 83 -42 155 -47 161 -9 13 -65 24 -73 15z m-112 -369
c9 -31 19 -72 22 -91 3 -19 8 -38 11 -42 4 -7 52 -187 71 -266 4 -19 1 -23
-18 -24 -13 -1 -49 -3 -79 -5 -104 -7 -183 -5 -193 5 -8 8 5 64 30 131 3 8 7
20 8 25 2 6 19 62 40 125 20 63 43 136 51 162 20 60 37 54 57 -20z"/>
<path d="M1980 2293 c0 -4 -38 -6 -85 -5 -47 2 -85 0 -86 -5 -4 -51 -11 -99
-14 -102 -3 -2 0 -11 5 -21 7 -13 20 -17 59 -15 91 5 86 36 86 -529 0 -549 1
-542 -66 -577 -21 -10 -45 -19 -54 -19 -20 0 -31 -31 -34 -96 l-2 -53 93 6
c84 6 429 7 486 2 29 -2 31 1 35 37 2 17 5 34 8 39 2 6 4 23 4 40 0 26 -4 30
-38 36 -21 3 -40 2 -43 -3 -3 -5 -11 -5 -17 0 -7 4 -22 7 -35 6 -13 -1 -30 8
-41 23 -17 20 -19 43 -20 173 -1 83 2 150 6 151 4 1 60 2 123 4 166 3 249 28
347 102 134 100 205 234 208 388 2 165 -73 299 -205 363 -62 31 -78 36 -160
49 -49 8 -223 9 -309 3 -40 -3 -76 -1 -81 4 -6 6 -10 6 -10 1 0 -11 -133 -11
-150 0 -5 3 -10 3 -10 -2z m484 -204 c74 -29 106 -62 135 -139 3 -8 5 -62 5
-120 0 -90 -4 -112 -24 -150 -26 -51 -59 -90 -77 -90 -7 0 -13 -4 -13 -9 0
-24 -78 -33 -155 -20 -33 6 -70 11 -83 11 l-23 1 5 186 c8 271 14 343 26 351
21 13 151 -1 204 -21z"/>
</g>
</svg>
